<svg width="512" height="97" viewBox="0 0 512 97" fill="none" xmlns="http://www.w3.org/2000/svg">
<path d="M56.1818 45C55.4318 42.7045 54.4432 40.6477 53.2159 38.8295C52.0114 36.9886 50.5682 35.4205 48.8864 34.125C47.2273 32.8295 45.3409 31.8409 43.2273 31.1591C41.1136 30.4773 38.7955 30.1364 36.2727 30.1364C32.1364 30.1364 28.375 31.2045 24.9886 33.3409C21.6023 35.4773 18.9091 38.625 16.9091 42.7841C14.9091 46.9432 13.9091 52.0455 13.9091 58.0909C13.9091 64.1364 14.9205 69.2386 16.9432 73.3977C18.9659 77.5568 21.7045 80.7045 25.1591 82.8409C28.6136 84.9773 32.5 86.0455 36.8182 86.0455C40.8182 86.0455 44.3409 85.1932 47.3864 83.4886C50.4545 81.7614 52.8409 79.3295 54.5455 76.1932C56.2727 73.0341 57.1364 69.3182 57.1364 65.0455L59.7273 65.5909H38.7273V58.0909H65.3182V65.5909C65.3182 71.3409 64.0909 76.3409 61.6364 80.5909C59.2045 84.8409 55.8409 88.1364 51.5455 90.4773C47.2727 92.7955 42.3636 93.9545 36.8182 93.9545C30.6364 93.9545 25.2045 92.5 20.5227 89.5909C15.8636 86.6818 12.2273 82.5455 9.61364 77.1818C7.02273 71.8182 5.72727 65.4545 5.72727 58.0909C5.72727 52.5682 6.46591 47.6023 7.94318 43.1932C9.44318 38.7614 11.5568 34.9886 14.2841 31.875C17.0114 28.7614 20.2386 26.375 23.9659 24.7159C27.6932 23.0568 31.7955 22.2273 36.2727 22.2273C39.9545 22.2273 43.3864 22.7841 46.5682 23.8977C49.7727 24.9886 52.625 26.5455 55.125 28.5682C57.6477 30.5682 59.75 32.9659 61.4318 35.7614C63.1136 38.5341 64.2727 41.6136 64.9091 45H56.1818ZM94.1165 94.2273C90.7983 94.2273 87.7869 93.6023 85.0824 92.3523C82.3778 91.0795 80.2301 89.25 78.6392 86.8636C77.0483 84.4545 76.2528 81.5455 76.2528 78.1364C76.2528 75.1364 76.8438 72.7045 78.0256 70.8409C79.2074 68.9545 80.7869 67.4773 82.7642 66.4091C84.7415 65.3409 86.9233 64.5455 89.3097 64.0227C91.7188 63.4773 94.1392 63.0455 96.571 62.7273C99.7528 62.3182 102.332 62.0114 104.31 61.8068C106.31 61.5795 107.764 61.2045 108.673 60.6818C109.605 60.1591 110.071 59.25 110.071 57.9545V57.6818C110.071 54.3182 109.151 51.7045 107.31 49.8409C105.491 47.9773 102.73 47.0455 99.0256 47.0455C95.1847 47.0455 92.1733 47.8864 89.9915 49.5682C87.8097 51.25 86.2756 53.0455 85.3892 54.9545L77.7528 52.2273C79.1165 49.0455 80.9347 46.5682 83.2074 44.7955C85.5028 43 88.0028 41.75 90.7074 41.0455C93.4347 40.3182 96.1165 39.9545 98.7528 39.9545C100.435 39.9545 102.366 40.1591 104.548 40.5682C106.753 40.9545 108.878 41.7614 110.923 42.9886C112.991 44.2159 114.707 46.0682 116.071 48.5455C117.435 51.0227 118.116 54.3409 118.116 58.5V93H110.071V85.9091H109.662C109.116 87.0455 108.207 88.2614 106.935 89.5568C105.662 90.8523 103.969 91.9545 101.855 92.8636C99.7415 93.7727 97.1619 94.2273 94.1165 94.2273ZM95.3438 87C98.5256 87 101.207 86.375 103.389 85.125C105.594 83.875 107.253 82.2614 108.366 80.2841C109.503 78.3068 110.071 76.2273 110.071 74.0455V66.6818C109.73 67.0909 108.98 67.4659 107.821 67.8068C106.685 68.125 105.366 68.4091 103.866 68.6591C102.389 68.8864 100.946 69.0909 99.5369 69.2727C98.1506 69.4318 97.0256 69.5682 96.1619 69.6818C94.071 69.9545 92.1165 70.3977 90.2983 71.0114C88.5028 71.6023 87.0483 72.5 85.9347 73.7045C84.8438 74.8864 84.2983 76.5 84.2983 78.5455C84.2983 81.3409 85.3324 83.4545 87.4006 84.8864C89.4915 86.2955 92.1392 87 95.3438 87ZM132.801 93V40.6364H140.574V48.8182H141.256C142.347 46.0227 144.108 43.8523 146.54 42.3068C148.972 40.7386 151.892 39.9545 155.301 39.9545C158.756 39.9545 161.631 40.7386 163.926 42.3068C166.244 43.8523 168.051 46.0227 169.347 48.8182H169.892C171.233 46.1136 173.244 43.9659 175.926 42.375C178.608 40.7614 181.824 39.9545 185.574 39.9545C190.256 39.9545 194.085 41.4205 197.062 44.3523C200.04 47.2614 201.528 51.7955 201.528 57.9545V93H193.483V57.9545C193.483 54.0909 192.426 51.3295 190.312 49.6705C188.199 48.0114 185.71 47.1818 182.847 47.1818C179.165 47.1818 176.313 48.2955 174.29 50.5227C172.267 52.7273 171.256 55.5227 171.256 58.9091V93H163.074V57.1364C163.074 54.1591 162.108 51.7614 160.176 49.9432C158.244 48.1023 155.756 47.1818 152.71 47.1818C150.619 47.1818 148.665 47.7386 146.847 48.8523C145.051 49.9659 143.597 51.5114 142.483 53.4886C141.392 55.4432 140.847 57.7045 140.847 60.2727V93H132.801ZM238.193 94.0909C233.148 94.0909 228.795 92.9773 225.136 90.75C221.5 88.5 218.693 85.3636 216.716 81.3409C214.761 77.2955 213.784 72.5909 213.784 67.2273C213.784 61.8636 214.761 57.1364 216.716 53.0455C218.693 48.9318 221.443 45.7273 224.966 43.4318C228.511 41.1136 232.648 39.9545 237.375 39.9545C240.102 39.9545 242.795 40.4091 245.455 41.3182C248.114 42.2273 250.534 43.7045 252.716 45.75C254.898 47.7727 256.636 50.4545 257.932 53.7955C259.227 57.1364 259.875 61.25 259.875 66.1364V69.5455H219.511V62.5909H251.693C251.693 59.6364 251.102 57 249.92 54.6818C248.761 52.3636 247.102 50.5341 244.943 49.1932C242.807 47.8523 240.284 47.1818 237.375 47.1818C234.17 47.1818 231.398 47.9773 229.057 49.5682C226.739 51.1364 224.955 53.1818 223.705 55.7045C222.455 58.2273 221.83 60.9318 221.83 63.8182V68.4545C221.83 72.4091 222.511 75.7614 223.875 78.5114C225.261 81.2386 227.182 83.3182 229.636 84.75C232.091 86.1591 234.943 86.8636 238.193 86.8636C240.307 86.8636 242.216 86.5682 243.92 85.9773C245.648 85.3636 247.136 84.4545 248.386 83.25C249.636 82.0227 250.602 80.5 251.284 78.6818L259.057 80.8636C258.239 83.5 256.864 85.8182 254.932 87.8182C253 89.7955 250.614 91.3409 247.773 92.4545C244.932 93.5455 241.739 94.0909 238.193 94.0909Z" fill="#110726"/>
<path d="M277.58 93L257.875 23.1818H271.477L284.057 74.4886H284.705L298.136 23.1818H310.511L323.977 74.5227H324.591L337.17 23.1818H350.773L331.068 93H318.591L304.614 44.0114H304.068L290.057 93H277.58ZM368.722 94.0568C365.403 94.0568 362.415 93.4659 359.756 92.2841C357.119 91.0795 355.028 89.3068 353.483 86.9659C351.96 84.625 351.199 81.7386 351.199 78.3068C351.199 75.3523 351.744 72.9091 352.835 70.9773C353.926 69.0455 355.415 67.5 357.301 66.3409C359.188 65.1818 361.313 64.3068 363.676 63.7159C366.063 63.1023 368.528 62.6591 371.074 62.3864C374.142 62.0682 376.631 61.7841 378.54 61.5341C380.449 61.2614 381.835 60.8523 382.699 60.3068C383.585 59.7386 384.028 58.8636 384.028 57.6818V57.4773C384.028 54.9091 383.267 52.9205 381.744 51.5114C380.222 50.1023 378.028 49.3977 375.165 49.3977C372.142 49.3977 369.744 50.0568 367.972 51.375C366.222 52.6932 365.04 54.25 364.426 56.0455L352.903 54.4091C353.813 51.2273 355.313 48.5682 357.403 46.4318C359.494 44.2727 362.051 42.6591 365.074 41.5909C368.097 40.5 371.438 39.9545 375.097 39.9545C377.619 39.9545 380.131 40.25 382.631 40.8409C385.131 41.4318 387.415 42.4091 389.483 43.7727C391.551 45.1136 393.21 46.9432 394.46 49.2614C395.733 51.5795 396.369 54.4773 396.369 57.9545V93H384.506V85.8068H384.097C383.347 87.2614 382.29 88.625 380.926 89.8977C379.585 91.1477 377.892 92.1591 375.847 92.9318C373.824 93.6818 371.449 94.0568 368.722 94.0568ZM371.926 84.9886C374.403 84.9886 376.551 84.5 378.369 83.5227C380.188 82.5227 381.585 81.2045 382.562 79.5682C383.562 77.9318 384.062 76.1477 384.062 74.2159V68.0455C383.676 68.3636 383.017 68.6591 382.085 68.9318C381.176 69.2045 380.153 69.4432 379.017 69.6477C377.881 69.8523 376.756 70.0341 375.642 70.1932C374.528 70.3523 373.563 70.4886 372.744 70.6023C370.903 70.8523 369.256 71.2614 367.801 71.8295C366.347 72.3977 365.199 73.1932 364.358 74.2159C363.517 75.2159 363.097 76.5114 363.097 78.1023C363.097 80.375 363.926 82.0909 365.585 83.25C367.244 84.4091 369.358 84.9886 371.926 84.9886ZM453.676 40.6364L435.028 93H421.392L402.744 40.6364H415.903L427.938 79.5341H428.483L440.551 40.6364H453.676ZM483.616 94.0227C478.366 94.0227 473.832 92.9318 470.014 90.75C466.219 88.5455 463.298 85.4318 461.253 81.4091C459.207 77.3636 458.185 72.6023 458.185 67.125C458.185 61.7386 459.207 57.0114 461.253 52.9432C463.321 48.8523 466.207 45.6705 469.912 43.3977C473.616 41.1023 477.969 39.9545 482.969 39.9545C486.196 39.9545 489.241 40.4773 492.105 41.5227C494.991 42.5455 497.537 44.1364 499.741 46.2955C501.969 48.4545 503.719 51.2045 504.991 54.5455C506.264 57.8636 506.901 61.8182 506.901 66.4091V70.1932H463.98V61.875H495.071C495.048 59.5114 494.537 57.4091 493.537 55.5682C492.537 53.7045 491.139 52.2386 489.344 51.1705C487.571 50.1023 485.503 49.5682 483.139 49.5682C480.616 49.5682 478.401 50.1818 476.491 51.4091C474.582 52.6136 473.094 54.2045 472.026 56.1818C470.98 58.1364 470.446 60.2841 470.423 62.625V69.8864C470.423 72.9318 470.98 75.5455 472.094 77.7273C473.207 79.8864 474.764 81.5455 476.764 82.7045C478.764 83.8409 481.105 84.4091 483.787 84.4091C485.582 84.4091 487.207 84.1591 488.662 83.6591C490.116 83.1364 491.378 82.375 492.446 81.375C493.514 80.375 494.321 79.1364 494.866 77.6591L506.389 78.9545C505.662 82 504.276 84.6591 502.23 86.9318C500.207 89.1818 497.616 90.9318 494.457 92.1818C491.298 93.4091 487.685 94.0227 483.616 94.0227Z" fill="#F27405"/>
</svg>
